<?xml version="1.0" standalone="no"?>
<!DOCTYPE svg PUBLIC "-//W3C//DTD SVG 20010904//EN"
 "http://www.w3.org/TR/2001/REC-SVG-20010904/DTD/svg10.dtd">
<svg version="1.0" xmlns="http://www.w3.org/2000/svg"
 width="549.000000pt" height="549.000000pt" viewBox="0 0 549.000000 549.000000"
 preserveAspectRatio="xMidYMid meet">
<metadata>
Created by potrace 1.11, written by Peter Selinger 2001-2013
</metadata>
<g transform="translate(0.000000,549.000000) scale(0.100000,-0.100000)"
fill="#000000" stroke="none">
<path d="M5078 5040 c-21 -21 -38 -41 -38 -45 0 -4 -10 -21 -22 -38 -13 -18
-37 -59 -53 -92 -17 -33 -38 -71 -47 -85 -18 -29 -42 -130 -32 -139 4 -3 9 -1
11 5 2 6 17 26 33 44 17 19 30 38 30 42 0 5 4 7 9 4 5 -3 24 13 42 36 19 23
42 49 53 57 10 9 37 34 60 57 22 22 49 43 59 47 9 3 17 12 17 19 0 7 9 19 19
25 30 19 16 48 -29 62 -21 6 -43 18 -50 26 -17 20 -19 19 -62 -25z"/>
<path d="M3030 4259 c0 -20 -4 -29 -12 -26 -20 6 -37 -24 -38 -65 0 -20 -5
-38 -11 -40 -7 -2 -17 -37 -23 -78 -10 -67 -13 -75 -36 -80 -16 -4 -26 -14
-28 -28 -2 -12 -10 -22 -18 -22 -8 0 -14 -7 -14 -15 0 -8 4 -15 9 -15 10 0 2
-71 -8 -80 -7 -5 -22 -52 -40 -125 -15 -61 -46 -145 -75 -200 -14 -27 -26 -56
-26 -62 0 -7 -3 -13 -8 -13 -4 0 -15 -18 -25 -40 -9 -22 -21 -40 -27 -40 -5 0
-19 -9 -31 -21 -11 -11 -22 -19 -25 -17 -2 3 -6 58 -8 123 -3 65 -9 122 -15
128 -6 6 -17 -2 -30 -24 -12 -19 -21 -38 -21 -43 0 -5 -7 -3 -16 5 -13 10 -17
10 -25 -2 -5 -8 -9 -23 -9 -35 0 -11 -12 -54 -27 -95 -22 -61 -28 -99 -33
-209 -4 -74 -7 -125 -8 -112 -1 15 -6 21 -13 16 -16 -9 -5 -409 10 -428 6 -8
14 -47 17 -87 5 -76 31 -206 44 -224 4 -5 10 -26 13 -45 12 -74 20 -100 28
-100 5 0 9 -58 9 -130 l0 -130 35 0 c34 0 105 -36 121 -61 4 -7 10 -37 13 -67
7 -64 23 -76 41 -32 7 18 20 38 28 47 18 17 21 174 5 195 -6 7 -13 33 -17 57
l-7 43 37 -4 c30 -4 33 -2 19 8 -10 8 -12 14 -5 19 5 3 7 11 4 17 -4 6 -9 5
-15 -3 -6 -10 -11 -6 -18 14 -15 39 -14 50 5 43 13 -5 14 -1 9 25 -4 18 -18
53 -31 79 -13 26 -24 57 -24 69 0 12 -4 21 -9 21 -9 0 -45 139 -38 147 5 5 15
-12 61 -104 15 -29 31 -53 36 -53 6 0 10 -9 10 -19 0 -11 5 -23 10 -26 6 -4
10 7 10 25 0 17 4 29 9 26 4 -3 11 25 14 62 7 90 38 242 47 237 8 -5 20 29 20
59 0 10 11 40 25 68 14 27 25 54 25 60 0 6 14 40 30 75 17 34 30 67 30 71 0 5
11 36 25 70 14 34 25 73 25 88 0 20 4 25 16 20 9 -3 20 -6 25 -6 5 0 9 -6 9
-13 0 -7 10 -17 23 -22 12 -6 23 -21 25 -35 2 -14 11 -33 20 -43 15 -17 17
-17 29 8 8 14 20 25 27 25 8 0 17 6 20 13 5 10 7 10 12 0 6 -15 114 -18 114
-5 0 14 80 35 126 34 38 0 42 3 47 27 6 27 60 89 102 117 26 17 45 12 45 -12
0 -8 11 -32 25 -52 14 -20 25 -44 25 -52 0 -9 5 -21 11 -27 13 -13 -9 -53 -29
-53 -7 0 -10 -4 -7 -10 3 -5 19 -10 35 -10 17 0 33 -7 40 -17 8 -14 9 -11 5
15 -5 28 8 46 17 23 2 -5 10 -11 18 -13 8 -2 21 -11 28 -20 10 -14 28 -18 76
-18 65 0 80 -8 127 -67 30 -37 51 -131 44 -193 l-7 -57 69 -6 c37 -4 69 -11
71 -16 2 -6 18 -15 37 -21 22 -7 35 -19 39 -35 4 -14 11 -25 16 -25 6 0 10
-30 10 -67 l0 -67 29 46 c39 61 42 75 42 171 1 83 -16 167 -33 167 -5 0 -13
11 -18 25 -5 14 -17 28 -25 31 -8 4 -15 11 -15 16 0 6 -10 20 -23 32 -12 11
-28 40 -36 63 -8 23 -21 44 -30 47 -9 3 -32 15 -51 26 -30 17 -49 19 -138 17
-77 -2 -106 -7 -112 -17 -13 -22 -33 1 -32 37 2 48 -29 160 -49 182 -10 11
-19 32 -19 47 0 15 -7 35 -15 43 -8 9 -15 34 -16 56 -2 57 -18 105 -35 105 -8
0 -14 8 -14 18 0 27 -28 62 -45 56 -18 -7 -20 12 -2 20 10 5 10 7 0 12 -7 3
-13 17 -13 30 0 13 -5 24 -11 24 -6 0 -17 7 -25 15 -9 8 -24 15 -34 15 -10 0
-27 15 -39 36 -16 26 -27 35 -44 32 -17 -2 -23 -11 -25 -37 -3 -25 -6 -31 -12
-20 -6 8 -9 -54 -9 -156 0 -281 2 -258 -21 -252 -17 4 -20 0 -20 -34 0 -34 -4
-41 -27 -50 -25 -9 -131 -15 -138 -7 -2 2 5 53 16 113 24 141 26 410 4 439 -8
11 -15 34 -15 51 0 17 -9 56 -20 88 -11 31 -20 66 -20 78 0 39 -23 101 -32 87
-5 -8 -8 -1 -8 20 0 25 -4 32 -20 32 -12 0 -26 13 -37 33 -13 24 -18 28 -21
15 -2 -10 -7 -18 -11 -18 -12 0 -61 55 -61 68 0 7 -4 12 -10 12 -5 0 -10 -14
-10 -31z m487 -471 c-3 -8 -6 -5 -6 6 -1 11 2 17 5 13 3 -3 4 -12 1 -19z m83
-378 c0 -10 7 -21 16 -24 27 -10 13 -51 -18 -54 -27 -3 -28 -2 -28 46 0 27 3
52 6 55 11 10 24 -3 24 -23z m-505 -75 c4 -27 12 -53 18 -57 7 -5 3 -8 -10 -8
-21 0 -23 4 -23 62 0 72 7 73 15 3z m665 -135 c0 -5 -2 -10 -4 -10 -3 0 -8 5
-11 10 -3 6 -1 10 4 10 6 0 11 -4 11 -10z m97 -22 c-3 -8 -6 -5 -6 6 -1 11 2
17 5 13 3 -3 4 -12 1 -19z m-1080 -790 c-3 -7 -5 -2 -5 12 0 14 2 19 5 13 2
-7 2 -19 0 -25z"/>
<path d="M3155 4260 c-3 -5 -1 -10 4 -10 6 0 11 5 11 10 0 6 -2 10 -4 10 -3 0
-8 -4 -11 -10z"/>
<path d="M5464 3664 c3 -9 6 -18 6 -20 0 -2 5 -4 10 -4 6 0 10 9 10 20 0 12
-7 20 -16 20 -11 0 -14 -5 -10 -16z"/>
<path d="M301 3561 c-18 -17 -40 -31 -51 -31 -11 0 -35 -9 -53 -19 -19 -10
-43 -21 -53 -25 -10 -3 -1 -3 20 0 21 3 45 11 52 19 8 7 32 16 55 20 49 8 89
39 72 56 -8 8 -20 2 -42 -20z"/>
<path d="M5350 3521 c0 -13 29 -41 42 -41 7 0 1 11 -12 25 -26 27 -30 30 -30
16z"/>
<path d="M50 3455 c-17 -20 7 -20 34 0 19 15 19 15 -1 15 -11 0 -26 -7 -33
-15z"/>
<path d="M5400 3457 c0 -7 9 -20 20 -30 11 -9 20 -26 20 -37 0 -20 28 -60 42
-60 5 0 8 22 8 49 0 44 -2 49 -20 44 -13 -4 -22 1 -27 13 -11 31 -43 46 -43
21z"/>
<path d="M4240 3428 c0 -11 -7 -15 -22 -12 -13 2 -17 2 -10 -2 6 -3 12 -20 12
-37 l-1 -32 -18 34 c-20 38 -36 28 -26 -17 7 -31 38 -72 54 -72 6 0 11 -7 11
-15 0 -8 5 -15 10 -15 6 0 9 -3 9 -7 -3 -21 2 -33 14 -33 8 0 22 -17 31 -37
25 -55 50 -99 69 -117 8 -9 19 -25 22 -36 3 -11 10 -20 14 -20 11 0 55 -95 82
-177 13 -40 29 -73 36 -73 6 0 14 -10 16 -22 4 -20 4 -19 6 5 0 15 -3 27 -9
27 -5 0 -10 18 -10 40 0 40 15 55 23 23 4 -17 5 -17 6 0 2 33 19 17 36 -34 9
-28 15 -66 13 -85 -2 -19 -2 -34 2 -34 30 1 41 76 42 295 0 181 0 187 -11 181
-5 -3 -19 15 -30 40 -19 39 -24 44 -37 33 -11 -9 -14 -23 -10 -49 4 -24 3 -30
-4 -20 -5 8 -10 32 -10 53 0 21 -5 37 -11 37 -8 0 -10 14 -6 40 3 22 2 40 -3
40 -4 0 -10 9 -13 20 -3 11 -10 20 -16 20 -6 0 -11 -9 -11 -20 0 -15 -7 -20
-27 -20 -16 0 -37 7 -47 15 -11 8 -37 15 -58 15 -21 0 -38 5 -38 11 0 14 -26
39 -41 39 -6 0 -18 8 -25 18 -12 15 -13 15 -14 0z m24 -93 c4 -10 -1 -15 -14
-15 -13 0 -18 5 -14 15 4 8 10 15 14 15 4 0 10 -7 14 -15z m26 -35 c0 -5 -2
-10 -4 -10 -3 0 -8 5 -11 10 -3 6 -1 10 4 10 6 0 11 -4 11 -10z m80 -110 c0
-5 -5 -10 -11 -10 -5 0 -7 5 -4 10 3 6 8 10 11 10 2 0 4 -4 4 -10z m117 -12
c-3 -8 -6 -5 -6 6 -1 11 2 17 5 13 3 -3 4 -12 1 -19z m-107 -34 c0 -8 -5 -12
-10 -9 -6 4 -8 11 -5 16 9 14 15 11 15 -7z"/>
<path d="M4140 3398 c0 -7 5 -20 10 -28 8 -12 10 -9 10 13 0 15 -4 27 -10 27
-5 0 -10 -6 -10 -12z"/>
<path d="M5482 3145 c0 -16 2 -22 5 -12 2 9 2 23 0 30 -3 6 -5 -1 -5 -18z"/>
<path d="M2255 2882 c-6 -4 -16 -20 -23 -36 -7 -17 -26 -46 -43 -67 -16 -20
-29 -42 -29 -48 0 -10 -20 -15 -47 -12 -7 1 -13 -5 -13 -13 0 -8 -8 -21 -18
-28 -9 -7 -26 -31 -37 -53 -26 -51 -77 -103 -115 -117 -17 -5 -30 -16 -30 -24
0 -8 -6 -14 -12 -14 -7 0 -24 -9 -38 -20 -14 -11 -33 -20 -42 -20 -10 0 -18
-4 -18 -10 0 -5 10 -10 23 -10 38 0 137 22 137 30 0 7 26 14 114 27 35 5 38 3
32 -13 -4 -10 -4 -15 0 -11 4 4 13 -1 20 -11 12 -15 13 -13 14 18 0 26 3 31
10 20 5 -8 7 -23 4 -32 -5 -16 2 -18 44 -18 31 0 52 5 55 13 3 6 6 -6 7 -28 1
-22 5 -31 7 -21 4 15 7 16 13 5 5 -7 12 -10 16 -7 8 8 -22 59 -42 70 -18 11
-54 85 -54 112 0 13 7 29 15 36 8 7 15 21 15 31 0 10 5 21 10 24 6 3 10 17 10
31 0 13 4 24 9 24 11 0 25 111 19 152 -2 16 -7 25 -13 20z"/>
<path d="M1610 2749 c0 -5 5 -7 10 -4 6 3 10 8 10 11 0 2 -4 4 -10 4 -5 0 -10
-5 -10 -11z"/>
<path d="M1577 2710 c-8 -11 -17 -17 -20 -13 -4 3 -7 1 -7 -5 0 -6 -9 -13 -19
-17 -11 -3 -22 -19 -26 -35 -4 -17 -13 -30 -21 -30 -9 0 -12 -5 -9 -10 4 -6
11 -8 16 -5 5 4 9 -1 9 -9 0 -9 -4 -16 -10 -16 -22 0 -4 -188 36 -368 l5 -23
-31 22 c-16 13 -30 26 -30 31 0 4 -16 24 -35 44 -19 19 -35 41 -35 48 0 7 -9
21 -20 31 -11 10 -20 26 -20 37 0 10 -4 18 -9 18 -5 0 -9 -12 -9 -27 0 -16
-14 -60 -32 -99 -30 -69 -31 -73 -15 -97 9 -14 18 -44 19 -67 2 -23 10 -46 17
-51 12 -7 12 -10 1 -18 -11 -7 -10 -18 8 -62 12 -30 26 -62 31 -71 5 -10 9
-24 9 -31 0 -7 5 -18 11 -24 16 -16 48 -113 37 -113 -25 0 -57 23 -135 99 -29
28 -57 51 -62 51 -6 0 -15 9 -21 20 -6 11 -17 20 -26 20 -8 0 -17 7 -20 15 -4
8 -11 15 -17 15 -6 0 2 -13 17 -29 16 -16 25 -34 22 -39 -3 -6 0 -12 6 -15 9
-3 6 -11 -9 -26 -13 -12 -23 -28 -23 -36 0 -8 -4 -15 -10 -15 -5 0 -10 -18
-10 -40 0 -22 5 -40 10 -40 6 0 10 -8 10 -17 0 -15 2 -16 10 -3 8 12 10 9 10
-13 0 -16 4 -26 9 -22 5 3 18 -22 28 -55 18 -61 34 -82 25 -32 -2 15 -2 24 2
21 4 -4 9 -19 12 -35 7 -44 25 -94 33 -94 4 0 15 -15 26 -32 10 -18 29 -44 42
-57 13 -14 20 -28 15 -33 -9 -9 -154 10 -162 21 -8 11 -151 40 -166 34 -8 -3
-14 1 -14 11 0 9 -6 13 -15 10 -24 -9 1 -44 127 -174 75 -77 80 -85 59 -88
-13 -2 -26 0 -30 5 -3 5 -31 15 -62 21 -30 7 -71 21 -90 31 -19 10 -51 24 -71
30 -21 7 -38 16 -38 21 0 4 -22 16 -49 26 -28 10 -48 21 -45 25 2 4 -6 11 -18
15 -13 4 -39 20 -58 35 -19 16 -40 29 -47 29 -7 0 -17 9 -23 19 -5 11 -19 23
-30 26 -11 3 -20 13 -20 20 0 8 -12 21 -27 29 -28 14 -143 132 -143 146 0 4
-9 10 -20 13 -11 3 -20 13 -20 24 0 10 -9 24 -20 31 -11 7 -20 19 -20 27 0 9
-11 20 -25 25 -14 5 -25 16 -25 25 0 8 -4 15 -10 15 -5 0 -10 7 -10 16 0 8 -5
25 -12 37 -7 12 -14 33 -16 47 -1 14 -13 41 -25 60 -37 58 -76 158 -92 238 -5
23 -12 32 -27 32 -18 0 -19 4 -13 43 4 23 11 46 16 51 13 14 11 35 -8 77 -13
29 -20 36 -32 30 -9 -5 -33 -11 -53 -15 l-38 -7 0 -1210 0 -1209 1231 2 c1160
3 1231 4 1243 21 7 9 29 22 47 29 19 6 42 19 52 29 10 11 23 19 30 19 26 0 67
25 66 40 -2 18 10 50 27 70 81 95 123 120 214 128 30 2 61 9 68 15 20 16 210
18 274 3 29 -7 59 -11 66 -8 7 2 12 -3 12 -11 0 -8 7 -20 15 -27 12 -10 15 -9
16 6 0 15 3 14 11 -6 6 -14 12 -28 12 -32 1 -5 6 -8 11 -7 6 0 9 7 7 15 -2 8
2 14 8 14 5 0 10 -7 10 -15 0 -9 10 -15 28 -16 l27 -1 -30 -8 c-30 -8 -30 -8
-3 -9 15 0 33 -8 42 -16 8 -8 18 -15 22 -15 4 0 18 -10 31 -22 l24 -22 -7 42
c-6 36 -4 42 11 42 13 0 16 6 12 21 -4 14 0 22 14 28 19 6 41 36 55 72 3 8 17
23 32 32 l27 17 -27 -6 c-16 -4 -28 -2 -28 4 0 5 6 10 13 9 6 0 23 1 37 2 20
1 22 3 10 11 -12 8 -12 10 -1 10 9 0 11 7 8 22 -7 26 28 69 49 61 8 -3 17 2
20 11 3 9 10 16 15 16 4 0 6 -7 3 -15 -4 -8 -2 -15 4 -15 16 0 35 29 52 79 12
33 22 47 38 49 21 3 21 3 -4 30 -16 17 -23 35 -21 49 2 13 3 23 1 23 -2 0 -27
-11 -56 -24 -61 -28 -142 -56 -163 -56 -8 0 -15 -4 -15 -9 0 -4 -36 -16 -80
-25 -44 -10 -80 -21 -80 -26 0 -4 -44 -16 -97 -26 -54 -10 -100 -21 -103 -25
-11 -16 -300 -42 -450 -40 -159 1 -338 22 -349 39 -3 6 -26 15 -51 22 -24 7
-55 20 -68 30 -12 10 -37 22 -54 25 -18 4 -32 15 -35 26 -3 10 -13 19 -22 19
-15 1 -61 61 -61 80 0 19 -37 27 -90 19 -142 -20 -297 -4 -359 38 -18 13 -38
23 -43 23 -38 0 -278 239 -278 278 0 5 -11 25 -24 45 -14 20 -28 52 -32 72 -3
19 -13 39 -22 44 -9 5 -13 15 -9 25 8 19 62 22 83 4 8 -7 34 -29 58 -48 24
-19 46 -43 49 -52 3 -10 13 -21 24 -25 10 -4 24 -14 30 -24 7 -9 24 -20 38
-23 14 -4 25 -13 25 -21 0 -8 4 -15 10 -15 5 0 20 -11 34 -25 15 -15 31 -22
40 -19 11 4 16 1 16 -10 0 -9 6 -16 14 -16 8 0 21 -8 28 -18 7 -10 26 -22 42
-26 16 -4 41 -16 54 -27 14 -10 42 -22 63 -25 26 -4 39 -12 42 -26 3 -11 10
-17 16 -14 6 4 18 2 28 -3 45 -24 102 -40 108 -30 9 14 -14 39 -36 39 -11 0
-19 4 -19 9 0 5 -3 18 -6 28 -3 11 -2 14 3 7 4 -6 16 -13 26 -17 15 -6 17 2
18 68 1 41 2 101 3 133 1 50 -2 58 -21 67 -15 6 -25 22 -29 42 -3 18 -11 33
-16 33 -6 0 -8 -9 -5 -20 8 -32 -8 -23 -21 13 -9 24 -15 29 -21 18 -12 -19
-34 -3 -28 21 4 15 1 18 -14 13 -22 -7 -52 12 -43 26 9 15 -6 49 -22 49 -7 0
-19 9 -26 20 -7 11 -18 20 -25 20 -6 0 -14 8 -17 18 -4 11 -16 24 -29 31 -12
6 -30 25 -39 41 -16 29 -16 30 2 30 11 0 20 4 20 9 0 20 -30 79 -43 84 -8 3
-18 18 -21 33 -4 15 -16 40 -27 55 -10 15 -19 32 -19 39 0 7 -8 24 -19 38 -10
15 -26 52 -36 82 -10 30 -21 57 -25 60 -4 3 -9 26 -12 52 -5 44 -4 47 13 37
11 -5 19 -14 19 -19 0 -13 109 -66 155 -74 l38 -7 -6 51 c-4 29 -10 57 -15 64
-5 6 -15 43 -22 81 -8 39 -17 75 -22 81 -4 6 -15 76 -23 155 -9 79 -22 164
-29 189 -8 25 -12 61 -11 81 4 49 -6 61 -54 65 -31 3 -43 -1 -54 -16z m58 -10
c3 -5 1 -10 -4 -10 -6 0 -11 5 -11 10 0 6 2 10 4 10 3 0 8 -4 11 -10z m-452
-922 c3 -18 7 -40 10 -48 2 -8 2 -12 0 -7 -3 4 -11 7 -19 7 -10 0 -14 12 -14
40 0 48 15 53 23 8z m2637 -1138 c0 -22 -4 -40 -10 -40 -11 0 -14 63 -3 73 11
12 13 8 13 -33z m-850 -280 c0 -5 -7 -7 -15 -4 -8 4 -15 8 -15 10 0 2 7 4 15
4 8 0 15 -4 15 -10z"/>
<path d="M4580 2598 c0 -7 5 -20 10 -28 8 -12 10 -9 10 13 0 15 -4 27 -10 27
-5 0 -10 -6 -10 -12z"/>
<path d="M18 2563 c-22 -6 -24 -33 -3 -33 9 0 25 9 37 20 21 19 21 20 2 19
-10 -1 -27 -3 -36 -6z"/>
<path d="M3820 2463 c-19 -8 -37 -18 -40 -23 -13 -19 -154 -42 -221 -36 -64 6
-69 5 -69 -13 0 -11 7 -26 15 -35 8 -8 15 -19 15 -25 0 -6 4 -11 8 -11 5 0 18
-9 31 -21 12 -12 50 -27 83 -35 33 -8 73 -23 88 -34 16 -11 33 -20 39 -20 6 0
11 -5 11 -11 0 -5 17 -17 37 -26 31 -12 47 -13 86 -4 26 6 53 15 60 21 7 6 26
22 42 35 25 21 28 27 15 35 -8 5 -24 10 -36 10 -12 0 -31 9 -43 19 -13 11 -27
21 -33 23 -5 2 -15 41 -21 86 -6 46 -15 82 -21 81 -6 0 -27 -7 -46 -16z"/>
<path d="M1310 2441 c0 -6 5 -13 10 -16 6 -3 10 1 10 9 0 9 -4 16 -10 16 -5 0
-10 -4 -10 -9z"/>
<path d="M4790 2390 c-6 -11 -15 -20 -21 -20 -6 0 -22 -9 -36 -20 -14 -11 -21
-20 -14 -20 15 0 14 -65 -1 -106 -9 -27 -9 -38 2 -59 10 -20 11 -28 3 -33 -7
-4 -14 -39 -18 -77 -3 -39 -2 -64 1 -57 10 21 24 2 24 -34 0 -19 2 -34 4 -34
27 0 130 87 171 144 17 23 35 13 35 -19 0 -14 9 -40 20 -60 23 -42 44 -164 36
-213 -3 -19 -13 -43 -23 -54 -33 -37 -41 -70 -25 -108 10 -24 11 -35 3 -38 -6
-2 -11 -8 -11 -14 0 -6 7 -8 15 -4 11 4 15 -1 15 -19 0 -29 -13 -39 -40 -30
-21 7 -29 50 -11 57 6 2 6 18 2 38 l-7 35 -7 -27 c-4 -16 -13 -28 -20 -28 -6
-1 -34 -30 -62 -65 -27 -36 -53 -65 -57 -65 -5 0 -8 -7 -8 -15 0 -18 26 -20
33 -2 3 6 5 3 4 -9 -1 -26 22 -84 34 -84 21 0 6 -44 -26 -76 -19 -19 -42 -46
-51 -59 -9 -14 -23 -25 -30 -25 -16 0 -19 -46 -4 -55 6 -3 7 1 4 9 -4 11 0 16
10 16 9 0 16 4 16 9 0 16 118 131 134 131 9 0 19 8 23 18 8 24 54 72 69 72 7
0 16 9 19 20 3 11 10 20 15 20 12 0 23 -37 15 -50 -3 -5 0 -22 8 -36 l14 -27
8 39 c10 53 6 343 -6 365 -5 10 -9 42 -8 71 0 39 3 48 9 33 6 -15 9 -6 9 33 1
29 6 63 13 75 7 13 11 59 11 110 -1 50 3 87 8 87 14 0 -1 152 -17 167 -7 7
-18 26 -26 43 -9 21 -20 30 -37 30 -13 0 -30 8 -37 18 -13 16 -13 16 -14 0 0
-14 -9 -18 -37 -18 -21 0 -44 -4 -51 -9 -7 -4 -25 -6 -40 -3 -24 5 -25 6 -7
13 18 7 18 8 -4 8 -16 1 -21 5 -17 16 8 22 -1 18 -14 -5z m-10 -50 c0 -5 -4
-10 -10 -10 -5 0 -10 5 -10 10 0 6 5 10 10 10 6 0 10 -4 10 -10z m237 -342
c-3 -8 -6 -5 -6 6 -1 11 2 17 5 13 3 -3 4 -12 1 -19z m-7 -523 c-3 -5 -8 17
-11 51 -3 33 -9 66 -13 72 -4 7 -4 27 0 45 7 27 10 16 19 -63 6 -52 8 -99 5
-105z m-133 43 c-3 -8 -6 -5 -6 6 -1 11 2 17 5 13 3 -3 4 -12 1 -19z m3 -50
c0 -23 -16 -16 -23 11 -3 14 -1 18 9 14 8 -3 14 -14 14 -25z m-5 -38 c3 -5 1
-10 -4 -10 -6 0 -11 5 -11 10 0 6 2 10 4 10 3 0 8 -4 11 -10z m-5 -61 c0 -5
-4 -9 -10 -9 -5 0 -10 7 -10 16 0 8 5 12 10 9 6 -3 10 -10 10 -16z"/>
<path d="M2350 2310 c0 -5 5 -10 10 -10 6 0 10 5 10 10 0 6 -4 10 -10 10 -5 0
-10 -4 -10 -10z"/>
<path d="M2390 2270 c-9 -6 -10 -10 -3 -10 6 0 15 5 18 10 8 12 4 12 -15 0z"/>
<path d="M1928 1945 c-4 -11 -6 -31 -4 -45 12 -97 19 -130 27 -130 5 0 9 -18
9 -39 0 -50 25 -94 66 -116 17 -9 41 -34 52 -54 12 -21 38 -46 59 -57 21 -10
40 -22 41 -26 5 -12 92 -9 92 2 0 6 21 10 48 10 55 0 122 17 122 30 0 6 -13
10 -30 10 -16 0 -30 4 -30 8 0 4 -13 15 -29 25 -25 15 -29 24 -36 82 l-7 65
-81 0 c-85 0 -138 13 -172 43 -61 55 -86 85 -91 115 -3 17 -10 32 -14 32 -5 0
-10 15 -12 33 -3 26 -5 28 -10 12z"/>
<path d="M5477 1703 c-4 -3 -7 -13 -7 -21 0 -8 -8 -21 -17 -29 -16 -13 -16
-13 3 -4 12 6 24 7 28 4 3 -3 6 8 6 25 0 33 -2 37 -13 25z"/>
<path d="M5463 1628 c-4 -7 -8 -33 -9 -58 -2 -73 -16 -160 -25 -160 -18 0 -80
-73 -86 -101 -4 -24 -8 -27 -20 -18 -21 18 -41 -4 -23 -26 7 -8 18 -15 24 -15
6 0 16 -10 21 -22 6 -13 24 -27 43 -32 17 -5 32 -12 32 -17 0 -8 58 -69 66
-69 2 0 4 119 4 265 0 249 -4 288 -27 253z"/>
<path d="M1040 1440 c0 -6 7 -10 15 -10 8 0 15 2 15 4 0 2 -7 6 -15 10 -8 3
-15 1 -15 -4z"/>
<path d="M5365 1400 c-3 -5 -1 -10 4 -10 6 0 11 5 11 10 0 6 -2 10 -4 10 -3 0
-8 -4 -11 -10z"/>
<path d="M4975 1338 c-4 -10 -13 -18 -21 -18 -16 0 -19 -26 -4 -35 6 -3 10 1
10 9 0 8 7 19 16 24 9 5 14 15 11 23 -4 11 -6 10 -12 -3z"/>
<path d="M5300 1319 c0 -5 5 -7 10 -4 6 3 10 8 10 11 0 2 -4 4 -10 4 -5 0 -10
-5 -10 -11z"/>
<path d="M5267 1290 c3 -11 7 -20 9 -20 2 0 4 9 4 20 0 11 -4 20 -9 20 -5 0
-7 -9 -4 -20z"/>
<path d="M4907 1261 c-3 -14 0 -17 14 -14 11 3 19 12 19 19 0 21 -27 17 -33
-5z"/>
<path d="M4490 1190 c-19 -16 -32 -32 -28 -35 4 -4 14 0 23 9 9 8 23 20 32 24
8 5 14 14 12 20 -2 6 -20 -2 -39 -18z"/>
<path d="M4404 1120 c-15 -16 -33 -30 -40 -30 -6 0 -14 -7 -18 -15 -3 -8 -10
-15 -17 -15 -6 0 -24 -14 -40 -31 -16 -17 -22 -28 -13 -25 9 3 19 6 23 6 4 0
28 19 53 43 25 23 59 51 74 63 19 13 24 23 16 28 -6 4 -23 -6 -38 -24z"/>
<path d="M4675 1130 c-3 -5 -1 -10 4 -10 6 0 11 5 11 10 0 6 -2 10 -4 10 -3 0
-8 -4 -11 -10z"/>
<path d="M4737 1113 c-4 -3 -7 -14 -7 -24 0 -9 -9 -19 -20 -22 -12 -3 -20 -14
-20 -26 0 -14 6 -21 20 -21 11 0 20 6 20 13 0 15 47 67 60 67 6 0 10 5 10 10
0 11 -53 14 -63 3z"/>
<path d="M4565 1023 c-44 -46 -79 -88 -78 -93 1 -4 -9 -18 -22 -30 -14 -13
-25 -29 -25 -37 0 -7 -4 -13 -8 -13 -4 0 -23 -33 -42 -72 -18 -40 -40 -81 -48
-90 -14 -16 -13 -18 6 -18 11 0 27 6 35 14 17 17 39 2 30 -20 -3 -8 1 -14 11
-14 9 0 16 5 16 11 0 6 12 26 28 45 51 63 71 91 84 120 7 16 18 33 25 37 7 4
13 15 13 23 0 8 11 20 25 26 14 6 25 17 25 24 0 7 8 19 18 26 22 15 39 53 19
42 -25 -15 -77 -69 -77 -81 0 -18 -25 -16 -40 1 -9 12 -7 18 9 33 12 9 21 24
21 31 0 7 18 35 40 61 22 26 40 50 40 54 0 21 -34 -4 -105 -80z m-135 -318 c0
-8 -4 -15 -10 -15 -5 0 -10 7 -10 15 0 8 5 15 10 15 6 0 10 -7 10 -15z"/>
<path d="M4225 980 c-3 -5 1 -10 9 -10 9 0 16 5 16 10 0 6 -4 10 -9 10 -6 0
-13 -4 -16 -10z"/>
<path d="M4175 940 c-4 -6 -11 -8 -16 -5 -5 4 -12 0 -15 -8 -3 -9 -19 -21 -35
-27 -16 -7 -29 -16 -29 -20 0 -4 -10 -12 -22 -18 l-23 -11 22 0 c12 -1 23 2
25 7 4 10 70 57 91 65 9 3 17 11 17 17 0 13 -7 13 -15 0z"/>
<path d="M3995 840 c-4 -6 -30 -22 -58 -37 -39 -20 -47 -28 -33 -31 11 -2 23
3 28 12 5 9 18 16 28 16 11 0 20 5 20 10 0 6 6 10 14 10 7 0 19 7 26 15 10 12
10 15 -3 15 -9 0 -19 -5 -22 -10z"/>
<path d="M4064 133 c4 -5 -9 -13 -31 -20 -33 -10 -34 -12 -11 -12 14 -1 33 2
42 5 18 7 22 34 4 34 -6 0 -8 -3 -4 -7z"/>
<path d="M4272 120 c0 -14 2 -19 5 -12 2 6 2 18 0 25 -3 6 -5 1 -5 -13z"/>
<path d="M3550 79 c-13 -16 -29 -29 -36 -29 -11 0 -24 -21 -24 -41 0 -5 11 -9
25 -9 20 0 25 5 25 25 0 13 9 33 21 44 12 11 20 24 18 29 -2 5 -15 -3 -29 -19z"/>
<path d="M4098 103 c-10 -2 -18 -8 -18 -12 0 -4 -18 -17 -39 -29 -33 -19 -51
-39 -51 -58 0 -2 54 -4 120 -4 l120 0 0 25 c0 22 -4 25 -35 25 -32 0 -35 2
-35 30 0 31 -14 36 -62 23z m-8 -43 c0 -5 -2 -10 -4 -10 -3 0 -8 5 -11 10 -3
6 -1 10 4 10 6 0 11 -4 11 -10z"/>
<path d="M3930 50 c-26 -16 -4 -21 31 -6 31 14 32 15 9 15 -14 1 -32 -3 -40
-9z"/>
<path d="M3308 3 c7 -3 16 -2 19 1 4 3 -2 6 -13 5 -11 0 -14 -3 -6 -6z"/>
</g>
</svg>
